<?xml version="1.0" encoding="UTF-8" standalone="no"?>
<svg width="155px" height="90px" viewBox="0 0 155 90" version="1.1" xmlns="http://www.w3.org/2000/svg" xmlns:xlink="http://www.w3.org/1999/xlink">
    <!-- Generator: Sketch 3.8.1 (29687) - http://www.bohemiancoding.com/sketch -->
    <title>logo</title>
    <desc>Created with Sketch.</desc>
    <defs>
        <linearGradient x1="55.5218796%" y1="8.04150522%" x2="46.8493948%" y2="82.7365923%" id="linearGradient-1">
            <stop stop-color="#86C0E7" offset="0%"></stop>
            <stop stop-color="#3D2081" offset="100%"></stop>
        </linearGradient>
    </defs>
    <g id="Page-1" stroke="none" stroke-width="1" fill="none" fill-rule="evenodd">
        <path d="M43.3132324,3.18566895 L0,29.28 L0,38.76 L43.6,65.16 L47.9492188,56.2705078 L10.75,34.0799999 L45.0068359,12.8398438 L43.3132324,3.18566895 Z M111.585632,86.0787354 L154.749207,59.88 L154.749207,50.4 L111.149207,24 L106.799988,32.8894922 L143.999207,55.0800001 L109.742371,76.3201562 L111.585632,86.0787354 Z M47.64,1.2 L49.32,11.16 C51.72,10.68 53.88,10.44 55.56,10.44 C57.6,10.44 59.52,11.28 61.2,13.08 C62.76,14.76 64.2,17.64 65.52,21.6 L67.32,27.12 L40.8,87.36 L54.84,87.36 L72.72,43.44 L82.8,73.68 C84.6,79.2 86.52,83.04 88.44,85.08 C90.84,87.72 94.2,89.04 98.64,89.04 C101.16,89.04 104.420016,88.447666 108.020016,87.607666 L106.32,77.76 C104.4,78.24 102.84,78.48 101.88,78.48 C99.48,78.48 97.32,75.6 95.4,70.08 L76.92,16.44 C74.88,10.44 72.6,6.36 69.96,4.08 C67.08,1.32 62.88,0 57.48,0 C54,0 50.76,0.36 47.64,1.2 Z" id="&lt;λ&gt;" fill="url(#linearGradient-1)"></path>
    </g>
</svg>