<?xml version="1.0" encoding="UTF-8"?>
<svg width="200px" height="42px" viewBox="0 0 200 42" version="1.1" xmlns="http://www.w3.org/2000/svg" xmlns:xlink="http://www.w3.org/1999/xlink">
    <!-- Generator: Sketch 46.2 (44496) - http://www.bohemiancoding.com/sketch -->
    <title>logo-white</title>
    <desc>Created with Sketch.</desc>
    <defs>
        <polygon id="path-1" points="27.4285714 20.5142857 36.5714286 22.7936508 22.8571429 41.0285714 11.4285714 41.0285714"></polygon>
        <polygon id="path-2" points="22.8571429 41.1428571 11.4285714 41.1428571 0 27.4285714 0 13.7142857"></polygon>
        <polygon id="path-3" points="11.4252232 0 22.8571429 0 0 27.4285714 0 13.7142857"></polygon>
        <polygon id="path-4" points="41.1428571 0 52.5714286 0 64 13.7142857 64 27.4285714"></polygon>
        <polygon id="path-5" points="52.5714286 41.1428571 41.1428571 41.1428571 64 13.7142857 64 27.4285714"></polygon>
        <polygon id="path-6" points="11.4285714 0.0876116071 22.8571429 0.0876116071 52.5714286 41.1428571 41.1428571 41.1428571"></polygon>
    </defs>
    <g id="wallpaper" stroke="none" stroke-width="1" fill="none" fill-rule="evenodd">
        <g id="Logo-white-vector" transform="translate(-6.000000, -11.000000)">
            <g id="logo-white" transform="translate(6.000000, 11.000000)">
                <path d="M93.8,16.8 L98.76,16.8 L85.96,40 L81.64,40 L68.84,16.8 L73.84,16.8 L83.8,35.12 L93.8,16.8 Z M117.52,16.8 C118.960007,16.8 120.186662,17.3066616 121.2,18.32 C122.213338,19.3333384 122.72,20.5599928 122.72,22 L122.72,30.56 L103.44,30.56 L103.44,34.8 C103.44,35.0400012 103.526666,35.2466658 103.7,35.42 C103.873334,35.5933342 104.079999,35.68 104.32,35.68 L122.72,35.68 L122.72,40 L104.32,40 C102.879993,40 101.653338,39.4933384 100.64,38.48 C99.6266616,37.4666616 99.12,36.2400072 99.12,34.8 L99.12,22 C99.12,20.5599928 99.6266616,19.3333384 100.64,18.32 C101.653338,17.3066616 102.879993,16.8 104.32,16.8 L117.52,16.8 Z M103.44,26.24 L118.4,26.24 L118.4,22 C118.4,21.7599988 118.313334,21.5533342 118.14,21.38 C117.966666,21.2066658 117.760001,21.12 117.52,21.12 L104.32,21.12 C104.079999,21.12 103.873334,21.2066658 103.7,21.38 C103.526666,21.5533342 103.44,21.7599988 103.44,22 L103.44,26.24 Z M131.24,16.8 L144.2,16.8 L144.2,21.12 L131.24,21.12 C130.999999,21.12 130.793334,21.2066658 130.62,21.38 C130.446666,21.5533342 130.36,21.7599988 130.36,22 L130.36,40 L126.04,40 L126.04,22 C126.04,20.5599928 126.546662,19.3333384 127.56,18.32 C128.573338,17.3066616 129.799993,16.8 131.24,16.8 Z M170.24,16.8 L175.2,16.8 L162.4,40 L158.08,40 L145.28,16.8 L150.28,16.8 L160.24,35.12 L170.24,16.8 Z M193.96,16.8 C195.400007,16.8 196.626662,17.3066616 197.64,18.32 C198.653338,19.3333384 199.16,20.5599928 199.16,22 L199.16,30.56 L179.88,30.56 L179.88,34.8 C179.88,35.0400012 179.966666,35.2466658 180.14,35.42 C180.313334,35.5933342 180.519999,35.68 180.76,35.68 L199.16,35.68 L199.16,40 L180.76,40 C179.319993,40 178.093338,39.4933384 177.08,38.48 C176.066662,37.4666616 175.56,36.2400072 175.56,34.8 L175.56,22 C175.56,20.5599928 176.066662,19.3333384 177.08,18.32 C178.093338,17.3066616 179.319993,16.8 180.76,16.8 L193.96,16.8 Z M179.88,26.24 L194.84,26.24 L194.84,22 C194.84,21.7599988 194.753334,21.5533342 194.58,21.38 C194.406666,21.2066658 194.200001,21.12 193.96,21.12 L180.76,21.12 C180.519999,21.12 180.313334,21.2066658 180.14,21.38 C179.966666,21.5533342 179.88,21.7599988 179.88,22 L179.88,26.24 Z" id="verve" fill="#FFFFFF"></path>
                <g id="Rectangle-1">
                    <use fill="#FFFFFF" fill-rule="evenodd" xlink:href="#path-1"></use>
                    <path stroke="#444444" stroke-width="0.5" d="M27.5257664,20.796169 L11.9406057,40.7785714 L22.7323515,40.7785714 L36.1448257,22.9449484 L27.5257664,20.796169 Z"></path>
                </g>
                <g id="Rectangle-1">
                    <use fill="#FFFFFF" fill-rule="evenodd" xlink:href="#path-2"></use>
                    <path stroke="#444444" stroke-width="0.5" d="M22.3233825,40.8928571 L0.25,14.4047982 L0.25,27.3380589 L11.5456652,40.8928571 L22.3233825,40.8928571 Z"></path>
                </g>
                <g id="Rectangle-1">
                    <use fill="#FFFFFF" fill-rule="evenodd" xlink:href="#path-3"></use>
                    <path stroke="#444444" stroke-width="0.5" d="M11.5423389,0.25 L0.25,13.8047778 L0.25,26.7380589 L22.3233825,0.25 L11.5423389,0.25 Z"></path>
                </g>
                <g id="Rectangle-1">
                    <use fill="#FFFFFF" fill-rule="evenodd" xlink:href="#path-4"></use>
                    <path stroke="#444444" stroke-width="0.5" d="M41.6766175,0.25 L63.75,26.7380589 L63.75,13.8047982 L52.4543348,0.25 L41.6766175,0.25 Z"></path>
                </g>
                <g id="Rectangle-1">
                    <use fill="#FFFFFF" fill-rule="evenodd" xlink:href="#path-5"></use>
                    <path stroke="#444444" stroke-width="0.5" d="M52.4543348,40.8928571 L63.75,27.3380589 L63.75,14.4047982 L41.6766175,40.8928571 L52.4543348,40.8928571 Z"></path>
                </g>
                <g id="Rectangle-1">
                    <use fill="#FFFFFF" fill-rule="evenodd" xlink:href="#path-6"></use>
                    <path stroke="#444444" stroke-width="0.5" d="M11.9181214,0.337611607 L41.2705254,40.8928571 L52.0818786,40.8928571 L22.7294746,0.337611607 L11.9181214,0.337611607 Z"></path>
                </g>
            </g>
        </g>
    </g>
</svg>