<?xml version="1.0" encoding="UTF-8"?>
<svg width="199px" height="42px" viewBox="0 0 199 42" version="1.1" xmlns="http://www.w3.org/2000/svg" xmlns:xlink="http://www.w3.org/1999/xlink">
    <!-- Generator: Sketch 46.2 (44496) - http://www.bohemiancoding.com/sketch -->
    <title>logo-white</title>
    <desc>Created with Sketch.</desc>
    <defs>
        <polygon id="path-1" points="27.4285714 20.5142857 36.5714286 22.7936508 22.8571429 41.0285714 11.4285714 41.0285714"></polygon>
        <polygon id="path-2" points="22.8571429 41.1428571 11.4285714 41.1428571 0 27.4285714 0 13.7142857"></polygon>
        <polygon id="path-3" points="11.4252232 0 22.8571429 0 0 27.4285714 0 13.7142857"></polygon>
        <polygon id="path-4" points="41.1428571 0 52.5714286 0 64 13.7142857 64 27.4285714"></polygon>
        <polygon id="path-5" points="52.5714286 41.1428571 41.1428571 41.1428571 64 13.7142857 64 27.4285714"></polygon>
        <polygon id="path-6" points="11.4285714 0.0876116071 22.8571429 0.0876116071 52.5714286 41.1428571 41.1428571 41.1428571"></polygon>
    </defs>
    <g id="wallpaper" stroke="none" stroke-width="1" fill="none" fill-rule="evenodd">
        <g id="logo-white">
            <text id="verve" font-family="Orbitron-Medium, Orbitron" font-size="40" font-weight="400" fill="#FFFFFF">
                <tspan x="68" y="40">verve</tspan>
            </text>
            <g id="Rectangle-1">
                <use fill="#FFFFFF" fill-rule="evenodd" xlink:href="#path-1"></use>
                <path stroke="#444444" stroke-width="0.5" d="M27.5257664,20.796169 L11.9406057,40.7785714 L22.7323515,40.7785714 L36.1448257,22.9449484 L27.5257664,20.796169 Z"></path>
            </g>
            <g id="Rectangle-1">
                <use fill="#FFFFFF" fill-rule="evenodd" xlink:href="#path-2"></use>
                <path stroke="#444444" stroke-width="0.5" d="M22.3233825,40.8928571 L0.25,14.4047982 L0.25,27.3380589 L11.5456652,40.8928571 L22.3233825,40.8928571 Z"></path>
            </g>
            <g id="Rectangle-1">
                <use fill="#FFFFFF" fill-rule="evenodd" xlink:href="#path-3"></use>
                <path stroke="#444444" stroke-width="0.5" d="M11.5423389,0.25 L0.25,13.8047778 L0.25,26.7380589 L22.3233825,0.25 L11.5423389,0.25 Z"></path>
            </g>
            <g id="Rectangle-1">
                <use fill="#FFFFFF" fill-rule="evenodd" xlink:href="#path-4"></use>
                <path stroke="#444444" stroke-width="0.5" d="M41.6766175,0.25 L63.75,26.7380589 L63.75,13.8047982 L52.4543348,0.25 L41.6766175,0.25 Z"></path>
            </g>
            <g id="Rectangle-1">
                <use fill="#FFFFFF" fill-rule="evenodd" xlink:href="#path-5"></use>
                <path stroke="#444444" stroke-width="0.5" d="M52.4543348,40.8928571 L63.75,27.3380589 L63.75,14.4047982 L41.6766175,40.8928571 L52.4543348,40.8928571 Z"></path>
            </g>
            <g id="Rectangle-1">
                <use fill="#FFFFFF" fill-rule="evenodd" xlink:href="#path-6"></use>
                <path stroke="#444444" stroke-width="0.5" d="M11.9181214,0.337611607 L41.2705254,40.8928571 L52.0818786,40.8928571 L22.7294746,0.337611607 L11.9181214,0.337611607 Z"></path>
            </g>
        </g>
    </g>
</svg>